<svg xmlns="http://www.w3.org/2000/svg" style="display:none">
  <symbol id="cupra" viewBox="0 0 512 512">
    <g fill="none" stroke="currentColor" stroke-width="12" stroke-linecap="round" stroke-linejoin="round" stroke-miterlimit="10">
    <path
    d="M64.87.95c29.9 10.4 59.64 21.28 89.61 31.47 1.06.41 2.11.41 3.17 0 29.92-10.24 59.64-21.03 89.49-31.47-10.59 16.88-21.28 33.7-32.1 50.43-5-2.15-10.15-3.94-15.19-6 2.92-5.14 6.06-10.16 9.02-15.28-9.64 4.85-19.45 9.36-29.02 14.35 6.69 2.55 13.39 5.05 20.03 7.74 3.7 1.51 7.67 4.42 7.92 8.76.59 4.82-2.7 8.76-5.03 12.62-14.42 22.56-28.76 45.18-43.25 67.7.08-5.94-.6-11.94.1-17.84 5.7-18.09 11.33-36.2 16.52-54.44 1.02-2.71-2.01-4.16-3.96-5.11-5.5-2.43-10.65-5.65-16.28-7.73-5.71 2.47-11.19 5.46-16.79 8.17-1.73.8-4.17 2.38-3.18 4.64 5.15 18.25 10.84 36.35 16.5 54.45.63 5.91.03 11.91.06 17.86-14.26-22.32-28.49-44.67-42.73-67-2.48-4.11-6.08-8.31-5.46-13.44.33-4.31 4.28-7.17 7.98-8.67 6.58-2.68 13.26-5.13 19.89-7.72-9.55-4.97-19.32-9.52-28.95-14.33 2.95 5.12 6.09 10.13 9 15.28-5.07 2.02-10.2 3.89-15.25 5.96-10.78-16.75-21.45-33.58-32.1-50.4zm63.36 204.24c.1-9.86-.07-19.71.09-29.57 16.22.11 32.45-.03 48.67.06 3.17-.11 6.87 1.48 7.5 4.9.39 3.35.3 6.75.06 10.1-.2 3.7-4.08 5.94-7.5 5.7-13.23.03-26.46-.02-39.7.01.01 2.96.02 5.91.06 8.87-3.06.08-6.12.04-9.18-.07m9.09-22.88c.04 2.3.06 4.6.11 6.91 12.56-.12 25.12.11 37.68-.11 2.28-1.32.73-4.49 1.16-6.61-12.97-.44-25.97-.09-38.95-.19z"
    
  />
 
  </g>
  </symbol>
</svg>


